P3
5 2
255
255 0 0
0 255 0
0 0 255
255 255 0
0 255 255
255 255 255
255 0 255
255 100 100
100 100 100
10 120 150